<svg width="18" height="18" viewBox="0 0 18 18" fill="none" xmlns="http://www.w3.org/2000/svg">
<path d="M3.32812 10.2031C4.20312 11.0781 5.26562 11.5156 6.51562 11.5156C7.76562 11.5156 8.82812 11.0781 9.70312 10.2031C10.5781 9.32812 11.0156 8.26562 11.0156 7.01562C11.0156 5.76562 10.5781 4.70312 9.70312 3.82812C8.82812 2.95312 7.76562 2.51562 6.51562 2.51562C5.26562 2.51562 4.20312 2.95312 3.32812 3.82812C2.45312 4.70312 2.01562 5.76562 2.01562 7.01562C2.01562 8.26562 2.45312 9.32812 3.32812 10.2031ZM12.5156 11.5156L17.4844 16.4844L15.9844 17.9844L11.0156 13.0156V12.2188L10.7344 11.9375C9.54688 12.9688 8.14062 13.4844 6.51562 13.4844C4.70312 13.4844 3.15625 12.8594 1.875 11.6094C0.625 10.3594 0 8.82812 0 7.01562C0 5.20312 0.625 3.67188 1.875 2.42188C3.15625 1.14063 4.70312 0.5 6.51562 0.5C8.32812 0.5 9.85938 1.14063 11.1094 2.42188C12.3594 3.67188 12.9844 5.20312 12.9844 7.01562C12.9844 7.67188 12.8281 8.42188 12.5156 9.26562C12.2031 10.0781 11.8438 10.7344 11.4375 11.2344L11.7188 11.5156H12.5156Z" fill="#090129"/>
</svg>
